<svg xmlns="http://www.w3.org/2000/svg" width="32" height="32" viewBox="0 0 32 32">
  <defs>
    <linearGradient id="heartGrad" x1="0%" y1="0%" x2="100%" y2="100%">
      <stop offset="0%" style="stop-color:#FFB6C1;stop-opacity:1" />
      <stop offset="100%" style="stop-color:#FF69B4;stop-opacity:1" />
    </linearGradient>
    <linearGradient id="starGrad" x1="0%" y1="0%" x2="100%" y2="100%">
      <stop offset="0%" style="stop-color:#FFE4E1;stop-opacity:1" />
      <stop offset="100%" style="stop-color:#FFB6C1;stop-opacity:1" />
    </linearGradient>
  </defs>
  <circle cx="16" cy="16" r="14" fill="#fff" stroke="url(#heartGrad)" stroke-width="2"/>
  <path d="M16 8 C12 4, 6 8, 6 12 C6 18, 16 24, 16 24 C16 24, 26 18, 26 12 C26 8, 20 4, 16 8" fill="url(#heartGrad)"/>
  <circle cx="12" cy="11" r="2" fill="#fff" opacity="0.6"/>
  <path d="M22 6 L23 8 L25 8 L23.5 9.5 L24 11.5 L22 10.5 L20 11.5 L20.5 9.5 L19 8 L21 8 Z" fill="url(#starGrad)" transform="scale(0.6) translate(20, 2)"/>
  <path d="M28 10 L29 12 L31 12 L29.5 13.5 L30 15.5 L28 14.5 L26 15.5 L26.5 13.5 L25 12 L27 12 Z" fill="url(#starGrad)" transform="scale(0.5) translate(20, 5)"/>
</svg>
