<svg xmlns="http://www.w3.org/2000/svg" width="32" height="32" viewBox="0 0 32 32">
  <defs>
    <linearGradient id="heartGrad2" x1="0%" y1="0%" x2="100%" y2="100%">
      <stop offset="0%" style="stop-color:#FFB6C1;stop-opacity:1" />
      <stop offset="100%" style="stop-color:#FF1493;stop-opacity:1" />
    </linearGradient>
    <linearGradient id="starGrad2" x1="0%" y1="0%" x2="100%" y2="100%">
      <stop offset="0%" style="stop-color:#FFE4E1;stop-opacity:1" />
      <stop offset="100%" style="stop-color:#FFB6C1;stop-opacity:1" />
    </linearGradient>
  </defs>
  <circle cx="16" cy="16" r="14" fill="#fff" stroke="url(#heartGrad2)" stroke-width="2.5"/>
  <path d="M16 9 C13 5, 8 8, 8 12 C8 17, 16 22, 16 22 C16 22, 24 17, 24 12 C24 8, 19 5, 16 9" fill="url(#heartGrad2)"/>
  <circle cx="13" cy="11" r="2.5" fill="#fff" opacity="0.7"/>
  <path d="M22 6 L23 8 L25 8 L23.5 9.5 L24 11.5 L22 10.5 L20 11.5 L20.5 9.5 L19 8 L21 8 Z" fill="url(#starGrad2)" transform="scale(0.7) translate(18, 1)"/>
  <path d="M28 10 L29 12 L31 12 L29.5 13.5 L30 15.5 L28 14.5 L26 15.5 L26.5 13.5 L25 12 L27 12 Z" fill="url(#starGrad2)" transform="scale(0.6) translate(18, 4)"/>
</svg>
